<?xml version="1.0" encoding="UTF-8" standalone="no"?><!DOCTYPE svg PUBLIC "-//W3C//DTD SVG 1.1//EN" "http://www.w3.org/Graphics/SVG/1.1/DTD/svg11.dtd"><svg width="100%" height="100%" viewBox="0 0 213 70" version="1.1" xmlns="http://www.w3.org/2000/svg" xmlns:xlink="http://www.w3.org/1999/xlink" xml:space="preserve" xmlns:serif="http://www.serif.com/" style="fill-rule:evenodd;clip-rule:evenodd;stroke-linejoin:round;stroke-miterlimit:2;"><rect x="15.068" y="0.15" width="3.012" height="54.224" style="fill:#ef3e60;fill-rule:nonzero;"/><path d="M45.188,69.436l-0,-3.012l-12.05,-0c-4.991,-0 -9.038,-4.046 -9.038,-9.038l0,-57.236l-3.012,-0l-0,57.236l-0,0c-0,6.655 5.395,12.05 12.05,12.05l12.05,0Z" style="fill:#f36d21;fill-rule:nonzero;"/><path d="M12.05,12.199l-0,-12.049l-3.013,-0l0,12.049c0,1.664 -1.349,3.013 -3.012,3.013l-6.025,0l0,3.013l6.025,-0c3.327,-0 6.025,-2.698 6.025,-6.026Z" style="fill:#00a9a4;fill-rule:nonzero;"/><path d="M30.12,57.392l-0,-36.149c-0,-1.664 1.348,-3.013 3.012,-3.013l12.05,0l0,-3.012l-12.05,-0c-3.327,-0 -6.025,2.697 -6.025,6.025l0,36.149c0,3.328 2.698,6.024 6.025,6.024l12.05,0l0,-3.012l-12.05,0c-1.664,0 -3.012,-1.349 -3.012,-3.012Z" style="fill:#8cc63f;fill-rule:nonzero;"/><path d="M64.161,47.788c-0.486,0.074 -1.944,0.187 -2.355,0.187c-1.982,-0 -2.543,-1.122 -2.543,-3.141l-0,-9.797l5.16,0l0,-2.505l-5.16,0l-0,-5.085l-1.458,-0l-1.309,1.009l-0,4.076l-3.178,0l-0,2.505l3.178,0l-0,10.208c-0,4.038 1.72,5.385 5.048,5.385c0.71,-0 2.019,-0.15 2.617,-0.3l0,-2.542Zm10.656,-15.668c-5.571,0 -7.179,2.58 -7.179,6.245l0,5.571c0,5.273 3.927,6.731 7.965,6.731c2.056,0 3.776,-0.15 5.721,-0.411l-0,-2.58c-1.57,0.186 -3.889,0.373 -5.459,0.373c-2.767,0 -5.46,-0.672 -5.46,-3.776l0,-1.645l11.517,-0l0,-4.263c0,-3.664 -1.533,-6.245 -7.105,-6.245Zm-4.412,8.002l0,-2.093c0,-2.506 1.758,-3.478 4.412,-3.478c3.067,0 4.338,1.346 4.338,3.403l0,2.168l-8.75,0Zm27.596,10.134l-0,-2.58c-0,-0 -3.478,0.373 -4.749,0.373c-2.393,0 -4.487,-0.486 -4.487,-3.439l-0,-6.432c-0,-2.954 2.094,-3.44 4.45,-3.44c1.57,0 4.45,0.337 4.45,0.337l-0,-2.58c-0,-0 -3.553,-0.375 -4.787,-0.375c-5.571,0 -6.881,2.581 -6.881,6.245l0,6.282c0,4.824 2.88,6.02 6.881,6.02c1.683,0 5.123,-0.411 5.123,-0.411Zm17.948,-0l-0,-12.452c-0,-3.29 -1.87,-5.684 -5.908,-5.684c-0.299,0 -0.71,0.038 -1.047,0.15l-4.599,3.216l-0,-11.778l-2.767,-0l-0,26.548l2.767,-0l-0,-12.639l4.113,-2.281c0.561,-0.298 1.272,-0.448 1.757,-0.448c2.019,-0 2.917,1.57 2.917,3.814l-0,11.554l2.767,-0Zm19.22,-0l-0,-12.452c-0,-3.29 -1.683,-5.684 -5.908,-5.684c-0.299,0 -0.71,0.038 -1.048,0.15l-4.599,3.216l-0,-2.954l-2.767,0l-0,17.724l2.767,-0l-0,-12.639l4.113,-2.281c0.561,-0.298 1.272,-0.448 1.758,-0.448c2.019,-0 2.916,1.009 2.916,3.44l-0,11.928l2.768,-0Zm12.302,-18.136c-3.777,0 -7.404,1.309 -7.404,6.133l-0,6.282c-0,4.823 3.627,6.132 7.404,6.132c3.776,0 7.403,-1.309 7.403,-6.132l-0,-6.282c-0,-4.824 -3.627,-6.133 -7.403,-6.133Zm-0,2.431c2.916,0 4.636,1.159 4.636,3.739l-0,6.17c-0,2.617 -1.72,3.777 -4.636,3.777c-2.917,-0 -4.637,-1.16 -4.637,-3.777l-0,-6.17c-0,-2.58 1.72,-3.739 4.637,-3.739Zm24.342,15.705l-0,-2.58c-0,-0 -3.478,0.373 -4.749,0.373c-2.393,0 -4.487,-0.486 -4.487,-3.439l-0,-6.432c-0,-2.954 2.094,-3.44 4.45,-3.44c1.57,0 4.45,0.336 4.45,0.336l-0,-2.579c-0,-0 -3.553,-0.375 -4.787,-0.375c-5.572,0 -6.88,2.58 -6.88,6.245l-0,6.282c-0,4.823 2.879,6.02 6.88,6.02c1.683,0 5.123,-0.411 5.123,-0.411Zm7.366,-26.549l-2.767,0l-0,4.487l2.767,0l-0,-4.487Zm-0,8.825l-2.767,0l-0,17.724l2.767,0l-0,-17.724Zm15.406,15.256c-0.486,0.074 -1.945,0.187 -2.356,0.187c-1.982,-0 -2.542,-1.122 -2.542,-3.141l-0,-9.797l5.16,0l-0,-2.505l-5.16,0l-0,-5.085l-1.459,-0l-1.309,1.009l-0,4.076l-3.178,0l-0,2.505l3.178,0l-0,10.208c-0,4.038 1.72,5.385 5.048,5.385c0.711,-0 2.02,-0.15 2.618,-0.3l-0,-2.542Zm9.385,-17.649l3.926,-5.609l-3.253,0l-3.029,5.609l2.356,-0Zm1.271,1.981c-5.572,0 -7.179,2.58 -7.179,6.245l0,5.571c0,5.273 3.926,6.731 7.964,6.731c2.057,0 3.776,-0.15 5.722,-0.411l-0,-2.58c-1.57,0.186 -3.89,0.373 -5.46,0.373c-2.767,0 -5.459,-0.672 -5.459,-3.776l0,-1.645l11.517,-0l0,-4.263c0,-3.664 -1.533,-6.245 -7.105,-6.245Zm-4.412,8.002l0,-2.093c0,-2.506 1.757,-3.478 4.412,-3.478c3.066,0 4.337,1.346 4.337,3.403l0,2.168l-8.749,0Z" style="fill:#6a6f71;fill-rule:nonzero;"/></svg>