<svg id="svg" version="1.1" xmlns="http://www.w3.org/2000/svg" xmlns:xlink="http://www.w3.org/1999/xlink" width="400" height="400" viewBox="0, 0, 400,400"><g id="svgg"><path id="path0" d="M128.480 71.680 C 127.971 72.189,127.741 131.660,128.243 132.967 C 128.563 133.802,273.086 133.954,273.920 133.120 C 274.744 132.296,274.600 72.657,273.771 71.829 C 273.106 71.163,217.145 70.906,214.800 71.558 L 213.800 71.836 213.694 83.584 C 213.623 91.437,213.441 95.510,213.145 95.866 C 212.315 96.866,190.221 96.621,189.200 95.600 C 188.437 94.837,188.400 94.267,188.400 83.243 C 188.400 73.073,188.324 71.656,187.767 71.443 C 186.460 70.941,128.989 71.171,128.480 71.680 M128.390 160.212 C 127.748 160.986,128.150 169.368,128.967 172.257 C 129.270 173.326,129.621 174.920,129.748 175.800 C 129.956 177.249,131.310 181.662,133.000 186.400 C 133.727 188.437,137.548 196.094,137.991 196.400 C 138.150 196.510,138.776 197.410,139.382 198.400 C 141.532 201.911,142.599 203.426,144.454 205.600 C 147.666 209.364,155.213 216.800,155.822 216.800 C 155.949 216.800,157.018 217.565,158.197 218.500 C 159.376 219.435,161.102 220.650,162.033 221.200 C 162.964 221.750,164.309 222.587,165.022 223.060 C 165.734 223.533,166.741 224.049,167.259 224.207 C 167.776 224.365,168.470 224.706,168.800 224.963 C 169.130 225.221,170.570 225.940,172.000 226.561 C 173.430 227.183,175.391 228.041,176.358 228.468 C 177.325 228.896,178.855 229.402,179.758 229.592 C 180.661 229.783,182.194 230.232,183.163 230.589 C 184.133 230.947,185.663 231.186,186.563 231.120 L 188.200 231.000 188.400 219.719 C 188.551 211.222,188.728 208.311,189.119 207.919 C 189.810 207.229,212.289 206.929,212.962 207.601 C 213.249 207.888,213.469 211.994,213.600 219.519 L 213.800 231.000 216.000 230.956 C 219.616 230.884,232.221 226.325,236.400 223.578 C 236.730 223.361,237.567 222.923,238.260 222.603 C 238.953 222.284,239.763 221.781,240.060 221.485 C 240.357 221.189,241.557 220.290,242.726 219.487 C 247.028 216.531,249.621 214.330,253.431 210.400 C 257.375 206.331,259.582 203.833,259.591 203.426 C 259.596 203.220,259.939 202.680,260.352 202.226 C 261.225 201.268,264.800 196.052,264.800 195.736 C 264.800 195.619,265.134 195.046,265.542 194.462 C 265.950 193.878,266.404 192.900,266.552 192.290 C 266.700 191.679,267.176 190.824,267.610 190.390 C 268.045 189.955,268.401 189.285,268.402 188.900 C 268.404 188.515,268.676 187.680,269.007 187.045 C 269.339 186.410,269.889 184.928,270.231 183.752 C 270.573 182.577,271.000 181.524,271.180 181.412 C 271.360 181.301,271.724 179.993,271.987 178.505 C 272.251 177.017,272.726 174.976,273.043 173.969 C 273.992 170.951,274.459 161.162,273.696 160.300 C 272.800 159.288,129.228 159.202,128.390 160.212 " stroke="none" fill="#ea1a23" fill-rule="evenodd"></path><path id="path1" d="M55.572 249.462 C 54.826 249.663,55.260 252.988,56.286 254.932 C 56.614 255.554,57.039 257.308,57.230 258.829 C 57.421 260.349,57.846 262.003,58.174 262.505 C 58.503 263.006,58.889 264.492,59.033 265.808 C 59.177 267.124,59.567 268.636,59.901 269.168 C 60.235 269.700,60.643 271.374,60.810 272.888 C 60.976 274.401,61.378 275.946,61.704 276.320 C 62.030 276.694,62.389 278.087,62.503 279.417 C 62.616 280.746,63.089 282.543,63.555 283.411 C 64.059 284.351,64.400 285.720,64.400 286.800 C 64.400 287.797,64.733 289.239,65.139 290.006 C 65.546 290.773,66.001 292.468,66.151 293.774 C 66.302 295.079,66.619 296.382,66.857 296.669 C 67.095 296.956,67.495 298.227,67.745 299.495 L 68.200 301.800 75.600 301.800 L 83.000 301.800 83.455 299.600 C 83.706 298.390,84.201 296.731,84.555 295.913 C 84.910 295.095,85.200 293.780,85.200 292.991 C 85.200 292.202,85.549 290.789,85.976 289.852 C 86.404 288.914,86.877 287.169,87.028 285.974 C 87.180 284.778,87.544 283.522,87.839 283.183 C 88.133 282.844,88.497 281.494,88.647 280.183 C 88.798 278.872,89.254 277.173,89.661 276.406 C 90.067 275.639,90.401 274.379,90.402 273.606 C 90.411 268.155,94.027 266.313,94.499 271.520 C 94.615 272.792,95.089 274.543,95.555 275.411 C 96.059 276.351,96.400 277.720,96.400 278.800 C 96.400 279.797,96.733 281.239,97.139 282.006 C 97.546 282.773,97.999 284.446,98.146 285.724 C 98.292 287.002,98.673 288.445,98.992 288.932 C 99.311 289.418,99.691 290.892,99.837 292.208 C 99.982 293.524,100.439 295.161,100.851 295.847 C 101.283 296.567,101.600 297.845,101.600 298.871 C 101.600 302.029,101.613 302.034,109.795 301.910 L 116.987 301.800 117.237 300.400 C 117.375 299.630,117.781 298.460,118.141 297.800 C 118.501 297.140,118.800 296.060,118.807 295.400 C 118.824 293.690,119.469 291.128,119.958 290.826 C 120.186 290.685,120.493 289.496,120.639 288.185 C 120.785 286.873,121.241 285.045,121.653 284.122 C 122.064 283.199,122.400 281.756,122.400 280.916 C 122.400 280.076,122.768 278.701,123.218 277.862 C 123.668 277.022,124.145 275.165,124.279 273.735 C 124.412 272.305,124.751 270.906,125.032 270.626 C 125.312 270.345,125.733 268.735,125.968 267.048 C 126.203 265.360,126.645 263.579,126.950 263.090 C 127.255 262.600,127.617 261.044,127.754 259.630 C 127.890 258.217,128.270 256.765,128.597 256.404 C 128.924 256.042,129.349 254.679,129.541 253.373 C 129.734 252.068,130.016 250.709,130.168 250.353 C 130.572 249.408,129.401 249.212,123.316 249.205 C 116.396 249.198,116.523 249.081,115.769 256.200 C 115.630 257.520,115.277 258.979,114.986 259.442 C 114.695 259.906,114.271 261.949,114.044 263.982 C 113.817 266.016,113.430 267.923,113.183 268.220 C 112.937 268.517,112.599 270.254,112.431 272.080 C 112.264 273.906,111.836 275.962,111.480 276.648 C 111.124 277.335,110.711 279.088,110.562 280.545 C 110.186 284.214,109.609 284.548,107.835 282.129 C 106.623 280.478,106.418 279.882,106.410 277.989 C 106.404 276.642,106.155 275.428,105.772 274.882 C 105.427 274.389,104.959 272.774,104.732 271.293 C 104.505 269.812,104.089 268.330,103.808 268.000 C 103.526 267.670,103.168 266.320,103.012 265.000 C 102.855 263.680,102.406 262.060,102.014 261.400 C 101.621 260.740,101.206 259.099,101.092 257.754 C 100.979 256.408,100.644 254.878,100.349 254.354 C 100.053 253.829,99.629 252.500,99.406 251.400 L 99.000 249.400 93.200 249.285 C 85.532 249.133,85.600 249.112,85.600 251.630 C 85.600 252.737,85.263 254.399,84.851 255.322 C 84.440 256.245,83.979 257.990,83.828 259.200 C 83.676 260.410,83.278 261.821,82.944 262.336 C 82.609 262.850,82.237 264.290,82.117 265.536 C 81.997 266.781,81.562 268.361,81.149 269.047 C 80.737 269.733,80.396 270.993,80.391 271.847 C 80.386 272.701,80.010 274.210,79.554 275.200 C 79.099 276.190,78.632 278.080,78.517 279.400 C 78.026 285.042,74.441 285.317,74.413 279.715 C 74.405 278.276,74.087 276.424,73.657 275.315 C 73.248 274.262,72.794 272.063,72.647 270.430 C 72.501 268.796,72.172 267.208,71.917 266.900 C 71.661 266.592,71.227 264.596,70.952 262.466 C 70.677 260.335,70.172 258.054,69.829 257.396 C 69.486 256.738,69.204 255.282,69.202 254.160 C 69.199 251.470,68.564 249.738,67.475 249.446 C 66.498 249.184,56.555 249.197,55.572 249.462 M139.300 249.460 C 138.729 249.696,138.587 256.646,139.136 257.511 C 139.382 257.897,141.002 257.994,145.830 257.911 L 152.200 257.800 152.200 253.600 L 152.200 249.400 146.000 249.327 C 142.590 249.286,139.575 249.346,139.300 249.460 M171.300 249.465 C 170.744 249.689,170.627 256.016,171.153 257.357 C 171.514 258.276,183.907 258.385,184.487 257.474 C 185.118 256.481,184.848 249.704,184.167 249.443 C 183.415 249.154,172.022 249.174,171.300 249.465 M197.791 249.682 C 197.682 249.967,197.639 261.810,197.696 276.000 L 197.800 301.800 203.000 301.919 C 205.860 301.985,208.740 301.940,209.400 301.820 L 210.600 301.602 210.478 293.277 L 210.356 284.953 211.478 283.829 C 213.729 281.574,220.051 283.353,220.663 286.413 C 220.789 287.043,221.231 287.866,221.646 288.242 C 222.061 288.617,222.400 289.242,222.400 289.631 C 222.400 290.020,222.812 290.847,223.316 291.469 C 223.819 292.091,224.458 293.050,224.735 293.600 C 225.012 294.150,225.510 295.140,225.840 295.800 C 226.171 296.460,226.611 297.270,226.819 297.600 C 227.026 297.930,227.489 298.880,227.846 299.712 C 228.776 301.873,229.247 302.001,236.274 301.995 C 244.320 301.988,244.536 301.937,243.661 300.270 C 243.297 299.579,242.685 298.775,242.300 298.484 C 241.915 298.193,241.600 297.633,241.600 297.240 C 241.600 296.846,241.150 296.001,240.600 295.362 C 240.051 294.723,239.601 293.913,239.600 293.562 C 239.600 293.211,239.240 292.598,238.800 292.200 C 238.360 291.802,238.000 291.258,238.000 290.992 C 238.000 290.726,237.640 290.050,237.200 289.491 C 236.760 288.931,236.400 288.209,236.400 287.886 C 236.400 287.563,236.109 287.056,235.753 286.761 C 234.846 286.009,233.067 282.124,233.323 281.456 C 233.440 281.152,234.043 280.775,234.664 280.620 C 235.922 280.304,236.052 280.202,239.300 277.019 C 240.791 275.557,241.600 274.438,241.600 273.836 C 241.600 273.326,241.960 272.450,242.400 271.891 C 243.555 270.423,243.585 262.529,242.443 260.647 C 242.027 259.961,241.563 258.815,241.411 258.100 C 241.260 257.385,240.975 256.800,240.778 256.800 C 240.582 256.800,240.141 256.260,239.800 255.600 C 239.459 254.940,238.957 254.400,238.686 254.400 C 238.415 254.400,237.968 254.040,237.693 253.600 C 237.418 253.160,236.862 252.800,236.458 252.800 C 236.053 252.800,235.312 252.444,234.810 252.008 C 234.308 251.573,233.245 251.111,232.449 250.982 C 229.247 250.461,228.588 250.281,228.315 249.850 C 227.871 249.149,198.057 248.985,197.791 249.682 M251.200 249.456 C 250.555 249.632,250.341 258.133,250.956 259.129 C 251.158 259.456,253.073 259.600,257.234 259.600 L 263.220 259.600 263.617 260.645 C 263.866 261.301,263.975 269.128,263.907 281.646 L 263.800 301.601 265.000 301.820 C 265.660 301.940,268.630 301.984,271.600 301.919 L 277.000 301.800 277.200 281.542 C 277.443 256.968,276.526 259.600,284.838 259.600 C 288.802 259.600,290.845 259.451,291.032 259.148 C 291.582 258.258,291.646 249.876,291.105 249.533 C 290.604 249.215,252.353 249.142,251.200 249.456 M300.988 249.690 C 300.880 249.971,300.839 261.810,300.896 276.000 L 301.000 301.800 307.600 301.800 L 314.200 301.800 314.400 291.400 C 314.657 278.011,313.531 279.400,324.130 279.400 C 335.503 279.400,334.358 278.080,334.493 291.356 L 334.600 301.800 341.200 301.800 L 347.800 301.800 347.800 275.600 L 347.800 249.400 342.000 249.285 C 338.810 249.222,335.795 249.270,335.300 249.393 L 334.400 249.615 334.400 258.794 C 334.400 267.458,334.357 267.995,333.626 268.386 C 332.645 268.911,316.029 268.932,315.200 268.409 C 314.705 268.096,314.565 266.407,314.400 258.715 L 314.200 249.400 307.691 249.290 C 302.704 249.206,301.137 249.299,300.988 249.690 M225.890 260.100 C 226.315 260.485,226.829 260.800,227.033 260.800 C 229.756 260.800,230.983 268.819,228.600 271.042 C 225.796 273.656,224.543 274.000,217.828 274.000 C 210.132 274.000,210.640 274.499,210.472 266.768 C 210.297 258.707,209.901 259.073,218.599 259.260 C 224.116 259.378,225.235 259.507,225.890 260.100 M139.179 265.380 C 138.249 266.311,138.907 290.120,139.880 290.729 C 140.117 290.878,140.546 291.784,140.832 292.742 C 141.118 293.700,141.587 294.574,141.876 294.684 C 142.164 294.795,142.405 295.091,142.412 295.343 C 142.427 295.924,144.662 298.400,145.172 298.400 C 145.382 298.400,145.790 298.732,146.077 299.139 C 146.365 299.545,147.263 300.095,148.074 300.361 C 148.885 300.627,149.608 301.023,149.680 301.241 C 149.753 301.459,151.160 301.828,152.806 302.060 C 154.453 302.293,156.571 302.734,157.514 303.042 C 159.722 303.761,163.898 303.757,166.086 303.033 C 167.029 302.721,169.036 302.280,170.547 302.052 C 172.058 301.825,173.588 301.374,173.947 301.050 C 174.306 300.727,175.071 300.345,175.647 300.201 C 176.757 299.924,180.800 296.371,180.800 295.673 C 180.800 295.447,181.224 294.753,181.742 294.131 C 182.261 293.509,182.816 292.280,182.976 291.400 C 183.136 290.520,183.565 289.469,183.929 289.064 C 184.725 288.177,185.239 266.279,184.481 265.521 C 184.027 265.067,171.949 264.937,171.234 265.379 C 170.940 265.561,170.800 268.986,170.800 275.975 C 170.800 284.667,170.705 286.381,170.200 286.800 C 169.870 287.074,169.600 287.560,169.600 287.880 C 169.600 289.517,166.369 291.738,163.642 291.975 C 158.715 292.404,154.400 290.996,154.400 288.960 C 154.400 288.706,153.995 288.229,153.500 287.900 C 152.611 287.311,152.597 287.164,152.400 276.237 L 152.200 265.171 145.879 265.086 C 142.295 265.037,139.395 265.165,139.179 265.380 " stroke="none" fill="#20191f" fill-rule="evenodd"></path><path id="path2" d="M0.000 200.000 L 0.000 400.000 200.000 400.000 L 400.000 400.000 400.000 200.000 L 400.000 0.000 200.000 0.000 L 0.000 0.000 0.000 200.000 M188.957 71.433 C 189.091 71.781,189.200 77.174,189.200 83.419 C 189.200 94.234,189.237 94.791,189.974 95.186 C 190.453 95.443,194.929 95.600,201.745 95.600 L 212.742 95.600 213.022 93.360 C 213.176 92.128,213.214 86.773,213.105 81.460 C 212.997 76.147,212.989 71.575,213.088 71.300 C 213.343 70.586,274.406 70.566,275.120 71.280 C 275.891 72.051,275.806 133.166,275.032 134.224 C 274.132 135.455,129.486 135.684,127.970 134.456 L 127.000 133.671 126.893 103.023 C 126.819 82.120,126.919 72.124,127.207 71.587 C 127.798 70.483,188.534 70.331,188.957 71.433 M274.800 159.200 C 275.698 160.098,275.848 163.001,275.183 166.600 C 274.979 167.700,274.614 170.310,274.371 172.400 C 274.128 174.490,273.685 176.703,273.386 177.318 C 273.088 177.932,272.720 179.282,272.568 180.318 C 272.417 181.353,271.982 182.650,271.602 183.200 C 271.222 183.750,270.781 184.920,270.622 185.800 C 270.462 186.680,270.094 187.670,269.803 188.000 C 269.512 188.330,269.073 189.357,268.826 190.283 C 268.580 191.209,268.196 192.079,267.972 192.217 C 267.749 192.355,267.284 193.173,266.940 194.034 C 266.595 194.895,266.165 195.600,265.984 195.600 C 265.802 195.600,265.529 195.993,265.377 196.474 C 264.939 197.853,259.211 205.837,256.800 208.430 C 256.470 208.784,255.282 210.061,254.160 211.267 C 252.262 213.306,249.618 215.600,246.399 218.000 C 245.661 218.550,244.569 219.405,243.971 219.900 C 243.373 220.395,242.756 220.800,242.600 220.800 C 242.444 220.800,241.781 221.250,241.127 221.800 C 240.473 222.350,239.691 222.800,239.389 222.800 C 239.087 222.800,238.696 223.047,238.520 223.349 C 238.154 223.978,233.749 226.400,232.972 226.400 C 232.689 226.400,232.219 226.632,231.929 226.915 C 231.314 227.513,227.322 229.085,225.000 229.643 C 224.120 229.855,222.807 230.304,222.083 230.641 C 221.359 230.978,219.919 231.403,218.883 231.586 C 217.847 231.768,216.416 232.155,215.701 232.446 C 213.091 233.508,213.017 233.166,213.008 220.094 L 213.000 208.600 202.000 208.488 C 195.950 208.426,190.595 208.474,190.100 208.595 L 189.200 208.815 189.200 219.782 C 189.200 225.939,189.029 231.198,188.810 231.774 C 188.421 232.796,187.088 233.190,186.614 232.423 C 186.486 232.216,185.531 231.933,184.491 231.795 C 182.297 231.504,176.834 229.822,174.800 228.812 C 174.030 228.430,172.860 227.986,172.200 227.827 C 171.540 227.668,170.730 227.306,170.400 227.023 C 170.070 226.739,169.318 226.393,168.728 226.253 C 168.138 226.113,167.386 225.729,167.057 225.399 C 166.727 225.070,166.309 224.798,166.129 224.795 C 165.859 224.791,162.662 222.809,158.235 219.902 C 154.760 217.620,143.600 207.085,143.600 206.087 C 143.600 205.887,143.237 205.396,142.794 204.995 C 142.083 204.351,139.714 201.106,138.600 199.250 C 138.380 198.883,137.824 198.047,137.365 197.392 C 136.906 196.736,136.412 195.930,136.268 195.600 C 136.123 195.270,135.845 194.730,135.649 194.400 C 135.453 194.070,135.047 193.260,134.746 192.600 C 134.446 191.940,133.975 191.162,133.700 190.871 C 133.425 190.581,133.200 190.023,133.200 189.631 C 133.200 189.239,132.750 188.073,132.200 187.038 C 131.650 186.004,131.200 184.757,131.200 184.268 C 131.200 183.778,130.925 182.986,130.590 182.507 C 130.254 182.027,129.796 180.592,129.571 179.318 C 129.346 178.043,128.880 176.280,128.535 175.400 C 127.093 171.721,126.794 159.561,128.125 158.714 C 129.422 157.890,273.969 158.369,274.800 159.200 M69.371 249.029 C 69.741 249.398,70.001 250.345,70.002 251.329 C 70.004 252.248,70.288 253.540,70.634 254.200 C 70.981 254.860,71.417 256.872,71.604 258.672 C 71.792 260.472,72.220 262.363,72.555 262.875 C 72.896 263.396,73.288 265.275,73.443 267.137 C 73.605 269.078,74.029 271.073,74.460 271.918 C 74.867 272.716,75.200 274.029,75.200 274.835 C 75.200 279.527,77.282 280.749,77.744 276.328 C 77.887 274.968,78.293 273.413,78.647 272.872 C 79.001 272.331,79.435 270.730,79.611 269.315 C 79.786 267.899,80.193 266.439,80.514 266.070 C 80.836 265.702,81.223 264.230,81.376 262.800 C 81.528 261.370,81.931 259.771,82.270 259.247 C 82.610 258.722,83.039 257.097,83.222 255.635 C 83.406 254.173,83.835 252.442,84.175 251.788 C 84.516 251.135,84.796 250.307,84.798 249.949 C 84.803 248.546,85.731 248.378,92.848 248.490 L 99.790 248.600 100.653 250.400 C 101.127 251.390,101.643 253.190,101.799 254.400 C 101.955 255.609,102.351 257.118,102.679 257.753 C 103.007 258.387,103.439 260.059,103.638 261.468 C 103.838 262.877,104.264 264.431,104.586 264.923 C 104.908 265.414,105.296 266.892,105.448 268.208 C 105.600 269.524,105.978 270.991,106.288 271.469 C 106.598 271.947,107.022 273.542,107.231 275.014 C 107.439 276.486,107.942 278.165,108.348 278.745 C 108.754 279.325,109.172 280.070,109.277 280.400 C 109.382 280.730,109.572 279.650,109.698 278.000 C 109.825 276.350,110.219 274.190,110.574 273.200 C 110.928 272.210,111.389 269.981,111.598 268.247 C 111.806 266.513,112.225 264.713,112.528 264.247 C 112.830 263.781,113.203 262.009,113.355 260.308 C 113.507 258.607,113.981 256.447,114.407 255.508 C 114.848 254.537,115.186 252.906,115.191 251.729 C 115.205 248.382,115.252 248.365,123.894 248.491 C 132.581 248.619,132.705 248.674,131.461 251.899 C 131.058 252.944,130.581 254.739,130.401 255.886 C 130.220 257.033,129.784 258.550,129.432 259.257 C 129.079 259.964,128.677 261.545,128.540 262.771 C 128.402 263.997,128.051 265.472,127.760 266.050 C 127.469 266.627,127.034 268.337,126.794 269.850 C 126.553 271.362,126.124 272.960,125.841 273.400 C 125.558 273.840,125.207 275.358,125.061 276.772 C 124.916 278.187,124.513 279.778,124.166 280.308 C 123.819 280.838,123.439 282.290,123.321 283.536 C 123.204 284.781,122.798 286.345,122.419 287.012 C 122.041 287.679,121.605 289.295,121.451 290.604 C 121.297 291.913,120.903 293.394,120.574 293.895 C 120.246 294.397,119.820 296.020,119.629 297.503 C 118.906 303.098,118.749 303.186,109.529 303.194 C 101.420 303.201,100.800 303.042,100.800 300.970 C 100.800 300.435,100.440 299.325,100.000 298.504 C 99.560 297.684,99.200 296.287,99.200 295.400 C 99.200 294.513,98.851 293.138,98.425 292.343 C 97.999 291.548,97.527 289.751,97.375 288.349 C 97.223 286.947,96.841 285.504,96.525 285.142 C 96.210 284.780,95.779 283.264,95.568 281.773 C 95.357 280.282,95.027 278.868,94.836 278.631 C 94.509 278.225,93.721 274.855,93.500 272.918 C 93.287 271.046,91.615 273.133,91.345 275.608 C 91.214 276.813,90.795 278.349,90.414 279.020 C 90.033 279.691,89.592 281.401,89.434 282.820 C 89.276 284.239,88.889 285.798,88.574 286.285 C 88.259 286.772,87.837 288.329,87.636 289.744 C 87.436 291.160,87.005 292.742,86.678 293.259 C 86.352 293.777,85.961 295.280,85.810 296.600 C 85.659 297.920,85.280 299.399,84.968 299.886 C 84.655 300.373,84.400 301.035,84.400 301.357 C 84.400 303.003,83.462 303.200,75.671 303.194 C 71.562 303.191,68.001 303.056,67.757 302.894 C 66.898 302.324,65.551 298.571,65.319 296.100 C 65.190 294.725,64.959 293.600,64.806 293.600 C 64.453 293.600,63.704 291.089,63.427 288.977 C 63.311 288.084,62.948 286.817,62.621 286.162 C 62.294 285.508,61.903 283.898,61.751 282.586 C 61.599 281.274,61.238 279.834,60.948 279.386 C 60.658 278.939,60.252 277.409,60.044 275.986 C 59.837 274.564,59.404 272.770,59.083 272.000 C 58.761 271.230,58.376 269.700,58.227 268.600 C 58.077 267.500,57.672 265.984,57.326 265.230 C 56.980 264.477,56.575 262.827,56.426 261.565 C 56.277 260.302,55.948 259.019,55.694 258.714 C 55.441 258.408,55.017 256.818,54.753 255.179 C 54.489 253.541,54.031 251.845,53.736 251.411 C 53.000 250.328,53.064 249.319,53.900 248.832 C 55.139 248.111,68.625 248.282,69.371 249.029 M153.186 248.983 C 153.876 249.815,153.597 258.443,152.851 259.340 C 152.297 260.006,141.145 260.350,138.980 259.769 C 137.026 259.244,136.061 250.222,137.821 248.935 C 138.927 248.126,152.510 248.169,153.186 248.983 M185.470 248.900 C 186.100 249.894,185.611 258.951,184.897 259.500 C 184.000 260.190,171.168 260.208,170.480 259.520 C 169.792 258.832,169.810 248.943,170.500 248.665 C 171.678 248.189,185.153 248.401,185.470 248.900 M232.564 249.500 C 233.193 249.995,234.106 250.400,234.593 250.400 C 235.079 250.400,235.893 250.760,236.400 251.200 C 236.907 251.640,237.563 252.000,237.858 252.000 C 238.152 252.000,238.618 252.360,238.893 252.800 C 239.168 253.240,239.619 253.600,239.896 253.600 C 240.173 253.600,240.400 253.780,240.400 254.000 C 240.400 254.220,240.717 254.717,241.103 255.103 C 247.446 261.446,244.047 279.344,236.100 281.448 C 234.878 281.772,234.921 283.288,236.200 284.964 C 236.750 285.686,237.200 286.554,237.200 286.895 C 237.200 287.236,237.452 287.611,237.760 287.729 C 238.068 287.847,238.532 288.587,238.791 289.372 C 239.050 290.157,239.414 290.800,239.600 290.800 C 239.786 290.800,240.139 291.408,240.384 292.152 C 240.629 292.895,241.183 293.823,241.615 294.214 C 242.047 294.604,242.400 295.173,242.400 295.478 C 242.400 295.783,242.793 296.610,243.274 297.316 C 243.755 298.022,244.486 299.103,244.899 299.717 C 245.312 300.332,245.594 301.322,245.525 301.917 L 245.400 303.000 236.961 303.000 C 227.811 303.000,227.467 302.924,227.001 300.806 C 226.864 300.179,226.509 299.574,226.213 299.460 C 225.917 299.347,225.558 298.721,225.415 298.069 C 225.272 297.416,224.805 296.566,224.377 296.179 C 223.950 295.793,223.600 295.157,223.600 294.767 C 223.600 294.376,223.344 293.801,223.031 293.489 C 222.487 292.944,221.776 291.687,220.041 288.200 C 218.436 284.972,218.090 284.746,214.983 284.880 L 212.200 285.000 212.092 293.569 C 212.019 299.302,211.831 302.322,211.523 302.693 C 210.699 303.685,197.017 303.244,196.229 302.200 C 195.234 300.881,195.302 249.719,196.300 248.947 C 197.701 247.865,231.134 248.374,232.564 249.500 M292.532 249.124 C 293.089 249.740,293.161 250.627,293.013 255.024 C 292.785 261.837,293.060 261.600,285.398 261.600 C 280.558 261.600,279.649 261.697,279.443 262.233 C 279.309 262.581,279.197 271.626,279.194 282.333 C 279.190 293.877,279.034 302.044,278.809 302.400 C 278.262 303.267,263.973 303.531,263.273 302.688 C 262.936 302.282,262.779 296.565,262.704 281.964 L 262.600 261.800 256.313 261.600 C 248.269 261.344,248.648 261.665,248.458 254.964 C 248.250 247.623,245.605 248.400,270.800 248.400 C 290.635 248.400,291.915 248.443,292.532 249.124 M315.371 249.029 C 315.902 249.559,316.000 250.936,316.000 257.855 C 316.000 268.592,315.148 267.600,324.371 267.600 C 333.382 267.600,332.400 268.762,332.400 258.099 C 332.400 250.997,332.491 249.762,333.062 249.131 C 333.882 248.225,347.841 248.001,348.720 248.880 C 349.564 249.724,349.396 301.747,348.547 302.596 C 347.671 303.472,334.135 303.345,333.060 302.451 C 332.478 301.967,332.400 300.700,332.400 291.794 C 332.400 282.945,332.321 281.655,331.767 281.443 C 330.963 281.134,318.484 281.123,316.950 281.430 L 315.800 281.659 315.919 291.610 C 316.072 304.281,316.837 303.202,307.700 303.194 C 304.015 303.191,300.730 303.017,300.400 302.809 C 299.646 302.332,299.265 250.573,300.006 249.189 C 300.586 248.105,314.304 247.962,315.371 249.029 M212.198 261.700 C 212.067 262.415,212.014 264.980,212.080 267.400 L 212.200 271.800 217.000 271.923 C 226.110 272.158,228.320 271.257,228.715 267.147 C 229.152 262.599,225.281 260.383,216.918 260.394 L 212.436 260.400 212.198 261.700 M153.146 264.241 C 153.447 264.901,153.600 268.668,153.600 275.395 C 153.600 281.549,153.753 285.648,153.989 285.793 C 154.203 285.926,154.667 286.641,155.019 287.383 C 156.768 291.070,162.464 292.195,166.134 289.579 C 169.339 287.294,169.696 285.838,169.972 273.919 C 170.124 267.324,170.352 263.886,170.657 263.582 C 171.308 262.933,184.270 262.995,185.060 263.650 C 186.161 264.563,185.659 289.741,184.500 291.794 C 184.005 292.671,183.600 293.678,183.600 294.032 C 183.600 294.386,183.245 294.998,182.810 295.391 C 182.376 295.784,181.914 296.442,181.783 296.853 C 181.653 297.264,181.288 297.600,180.973 297.600 C 180.658 297.600,180.400 297.864,180.400 298.186 C 180.400 298.508,179.995 298.984,179.500 299.244 C 179.005 299.504,178.456 299.961,178.280 300.258 C 178.104 300.556,177.706 300.800,177.396 300.800 C 177.085 300.800,176.496 301.159,176.087 301.599 C 175.678 302.038,174.546 302.555,173.571 302.747 C 172.597 302.940,171.260 303.389,170.600 303.746 C 168.633 304.810,154.550 304.697,152.400 303.600 C 151.538 303.160,150.410 302.800,149.894 302.800 C 149.378 302.800,148.345 302.350,147.600 301.800 C 146.855 301.250,146.079 300.800,145.876 300.800 C 145.096 300.800,140.739 295.925,140.021 294.249 C 139.606 293.281,139.084 292.375,138.861 292.238 C 138.638 292.100,138.331 290.955,138.178 289.694 C 138.025 288.432,137.749 287.110,137.566 286.756 C 136.868 285.411,137.061 264.768,137.777 264.050 C 138.306 263.520,139.659 263.363,145.113 263.200 C 152.821 262.969,152.551 262.934,153.146 264.241 " stroke="none" fill="#fbfbfb" fill-rule="evenodd"></path><path id="path3" d="M127.207 71.587 C 126.919 72.124,126.819 82.120,126.893 103.023 L 127.000 133.671 127.970 134.456 C 129.486 135.684,274.132 135.455,275.032 134.224 C 275.806 133.166,275.891 72.051,275.120 71.280 C 274.406 70.566,213.343 70.586,213.088 71.300 C 212.989 71.575,212.997 76.147,213.105 81.460 C 213.214 86.773,213.176 92.128,213.022 93.360 L 212.742 95.600 201.745 95.600 C 194.929 95.600,190.453 95.443,189.974 95.186 C 189.237 94.791,189.200 94.234,189.200 83.419 C 189.200 77.174,189.091 71.781,188.957 71.433 C 188.534 70.331,127.798 70.483,127.207 71.587 M187.767 71.443 C 188.324 71.656,188.400 73.073,188.400 83.243 C 188.400 94.267,188.437 94.837,189.200 95.600 C 190.221 96.621,212.315 96.866,213.145 95.866 C 213.442 95.509,213.623 91.380,213.694 83.366 L 213.800 71.400 243.321 71.297 C 263.216 71.228,273.097 71.331,273.621 71.611 C 274.583 72.126,274.875 132.165,273.920 133.120 C 273.086 133.954,128.563 133.802,128.243 132.967 C 127.722 131.610,127.973 71.678,128.500 71.465 C 129.221 71.174,187.011 71.153,187.767 71.443 M128.125 158.714 C 126.794 159.561,127.093 171.721,128.535 175.400 C 128.880 176.280,129.346 178.043,129.571 179.318 C 129.796 180.592,130.254 182.027,130.590 182.507 C 130.925 182.986,131.200 183.778,131.200 184.268 C 131.200 184.757,131.650 186.004,132.200 187.038 C 132.750 188.073,133.200 189.239,133.200 189.631 C 133.200 190.023,133.425 190.581,133.700 190.871 C 133.975 191.162,134.446 191.940,134.746 192.600 C 135.047 193.260,135.453 194.070,135.649 194.400 C 135.845 194.730,136.123 195.270,136.268 195.600 C 136.412 195.930,136.906 196.736,137.365 197.392 C 137.824 198.047,138.380 198.883,138.600 199.250 C 139.714 201.106,142.083 204.351,142.794 204.995 C 143.237 205.396,143.600 205.887,143.600 206.087 C 143.600 207.085,154.760 217.620,158.235 219.902 C 162.662 222.809,165.859 224.791,166.129 224.795 C 166.309 224.798,166.727 225.070,167.057 225.399 C 167.386 225.729,168.138 226.113,168.728 226.253 C 169.318 226.393,170.070 226.739,170.400 227.023 C 170.730 227.306,171.540 227.668,172.200 227.827 C 172.860 227.986,174.030 228.430,174.800 228.812 C 176.834 229.822,182.297 231.504,184.491 231.795 C 185.531 231.933,186.486 232.216,186.614 232.423 C 187.088 233.190,188.421 232.796,188.810 231.774 C 189.029 231.198,189.200 225.939,189.200 219.782 L 189.200 208.815 190.100 208.595 C 190.595 208.474,195.950 208.426,202.000 208.488 L 213.000 208.600 213.008 220.094 C 213.017 233.166,213.091 233.508,215.701 232.446 C 216.416 232.155,217.847 231.768,218.883 231.586 C 219.919 231.403,221.359 230.978,222.083 230.641 C 222.807 230.304,224.120 229.855,225.000 229.643 C 227.322 229.085,231.314 227.513,231.929 226.915 C 232.219 226.632,232.689 226.400,232.972 226.400 C 233.749 226.400,238.154 223.978,238.520 223.349 C 238.696 223.047,239.087 222.800,239.389 222.800 C 239.691 222.800,240.473 222.350,241.127 221.800 C 241.781 221.250,242.444 220.800,242.600 220.800 C 242.756 220.800,243.373 220.395,243.971 219.900 C 244.569 219.405,245.661 218.550,246.399 218.000 C 249.618 215.600,252.262 213.306,254.160 211.267 C 255.282 210.061,256.470 208.784,256.800 208.430 C 259.211 205.837,264.939 197.853,265.377 196.474 C 265.529 195.993,265.802 195.600,265.984 195.600 C 266.165 195.600,266.595 194.895,266.940 194.034 C 267.284 193.173,267.749 192.355,267.972 192.217 C 268.196 192.079,268.580 191.209,268.826 190.283 C 269.073 189.357,269.512 188.330,269.803 188.000 C 270.094 187.670,270.462 186.680,270.622 185.800 C 270.781 184.920,271.222 183.750,271.602 183.200 C 271.982 182.650,272.417 181.353,272.568 180.318 C 272.720 179.282,273.088 177.932,273.386 177.318 C 273.685 176.703,274.128 174.490,274.371 172.400 C 274.614 170.310,274.979 167.700,275.183 166.600 C 275.848 163.001,275.698 160.098,274.800 159.200 C 273.969 158.369,129.422 157.890,128.125 158.714 M273.696 160.300 C 274.454 161.156,274.001 170.780,273.043 174.165 C 272.727 175.284,272.253 177.280,271.990 178.600 C 271.728 179.920,271.350 181.202,271.150 181.449 C 270.951 181.695,270.518 182.804,270.189 183.911 C 269.860 185.019,269.324 186.438,268.998 187.063 C 268.672 187.688,268.404 188.491,268.402 188.846 C 268.401 189.201,268.066 189.921,267.658 190.446 C 267.250 190.971,266.701 192.061,266.438 192.868 C 266.174 193.675,265.698 194.552,265.380 194.817 C 265.061 195.082,264.800 195.439,264.800 195.612 C 264.800 196.091,260.677 202.156,260.104 202.520 C 259.827 202.696,259.596 203.056,259.591 203.320 C 259.570 204.494,250.733 213.452,246.000 217.098 C 244.790 218.030,243.609 218.950,243.375 219.142 C 243.141 219.335,242.570 219.695,242.106 219.943 C 241.642 220.192,240.999 220.658,240.678 220.980 C 239.879 221.778,237.833 222.987,235.200 224.216 C 233.990 224.781,231.920 225.758,230.600 226.387 C 225.584 228.777,218.802 230.900,216.000 230.956 L 213.800 231.000 213.600 219.519 C 213.469 211.994,213.249 207.888,212.962 207.601 C 212.076 206.717,189.641 207.254,188.967 208.176 C 188.511 208.802,188.400 211.067,188.400 219.796 C 188.400 226.784,188.252 230.788,187.983 231.057 C 187.460 231.580,183.584 231.019,181.976 230.188 C 181.351 229.864,180.448 229.600,179.970 229.600 C 179.491 229.600,177.998 229.133,176.650 228.562 C 171.341 226.314,169.375 225.413,168.800 224.963 C 168.470 224.706,167.750 224.362,167.200 224.200 C 166.650 224.038,165.930 223.678,165.600 223.401 C 165.270 223.123,164.379 222.581,163.620 222.196 C 162.860 221.811,161.992 221.250,161.691 220.948 C 161.390 220.647,161.000 220.400,160.826 220.400 C 160.495 220.400,157.853 218.454,156.766 217.409 C 156.418 217.074,156.011 216.800,155.861 216.800 C 154.609 216.800,142.422 203.830,140.640 200.600 C 139.361 198.283,138.307 196.598,138.011 196.400 C 137.493 196.053,133.972 189.097,133.152 186.800 C 131.297 181.601,129.962 177.289,129.748 175.800 C 129.621 174.920,129.270 173.326,128.967 172.257 C 128.150 169.368,127.748 160.986,128.390 160.212 C 129.228 159.202,272.800 159.288,273.696 160.300 M53.900 248.832 C 53.064 249.319,53.000 250.328,53.736 251.411 C 54.031 251.845,54.489 253.541,54.753 255.179 C 55.017 256.818,55.441 258.408,55.694 258.714 C 55.948 259.019,56.277 260.302,56.426 261.565 C 56.575 262.827,56.980 264.477,57.326 265.230 C 57.672 265.984,58.077 267.500,58.227 268.600 C 58.376 269.700,58.761 271.230,59.083 272.000 C 59.404 272.770,59.837 274.564,60.044 275.986 C 60.252 277.409,60.658 278.939,60.948 279.386 C 61.238 279.834,61.599 281.274,61.751 282.586 C 61.903 283.898,62.294 285.508,62.621 286.162 C 62.948 286.817,63.311 288.084,63.427 288.977 C 63.704 291.089,64.453 293.600,64.806 293.600 C 64.959 293.600,65.190 294.725,65.319 296.100 C 65.551 298.571,66.898 302.324,67.757 302.894 C 68.001 303.056,71.562 303.191,75.671 303.194 C 83.462 303.200,84.400 303.003,84.400 301.357 C 84.400 301.035,84.655 300.373,84.968 299.886 C 85.280 299.399,85.659 297.920,85.810 296.600 C 85.961 295.280,86.352 293.777,86.678 293.259 C 87.005 292.742,87.436 291.160,87.636 289.744 C 87.837 288.329,88.259 286.772,88.574 286.285 C 88.889 285.798,89.276 284.239,89.434 282.820 C 89.592 281.401,90.033 279.691,90.414 279.020 C 90.795 278.349,91.214 276.813,91.345 275.608 C 91.615 273.133,93.287 271.046,93.500 272.918 C 93.721 274.855,94.509 278.225,94.836 278.631 C 95.027 278.868,95.357 280.282,95.568 281.773 C 95.779 283.264,96.210 284.780,96.525 285.142 C 96.841 285.504,97.223 286.947,97.375 288.349 C 97.527 289.751,97.999 291.548,98.425 292.343 C 98.851 293.138,99.200 294.513,99.200 295.400 C 99.200 296.287,99.560 297.684,100.000 298.504 C 100.440 299.325,100.800 300.435,100.800 300.970 C 100.800 303.042,101.420 303.201,109.529 303.194 C 118.749 303.186,118.906 303.098,119.629 297.503 C 119.820 296.020,120.246 294.397,120.574 293.895 C 120.903 293.394,121.297 291.913,121.451 290.604 C 121.605 289.295,122.041 287.679,122.419 287.012 C 122.798 286.345,123.204 284.781,123.321 283.536 C 123.439 282.290,123.819 280.838,124.166 280.308 C 124.513 279.778,124.916 278.187,125.061 276.772 C 125.207 275.358,125.558 273.840,125.841 273.400 C 126.124 272.960,126.553 271.362,126.794 269.850 C 127.034 268.337,127.469 266.627,127.760 266.050 C 128.051 265.472,128.402 263.997,128.540 262.771 C 128.677 261.545,129.079 259.964,129.432 259.257 C 129.784 258.550,130.220 257.033,130.401 255.886 C 130.581 254.739,131.058 252.944,131.461 251.899 C 132.705 248.674,132.581 248.619,123.894 248.491 C 115.252 248.365,115.205 248.382,115.191 251.729 C 115.186 252.906,114.848 254.537,114.407 255.508 C 113.981 256.447,113.507 258.607,113.355 260.308 C 113.203 262.009,112.830 263.781,112.528 264.247 C 112.225 264.713,111.806 266.513,111.598 268.247 C 111.389 269.981,110.928 272.210,110.574 273.200 C 110.219 274.190,109.825 276.350,109.698 278.000 C 109.572 279.650,109.382 280.730,109.277 280.400 C 109.172 280.070,108.754 279.325,108.348 278.745 C 107.942 278.165,107.439 276.486,107.231 275.014 C 107.022 273.542,106.598 271.947,106.288 271.469 C 105.978 270.991,105.600 269.524,105.448 268.208 C 105.296 266.892,104.908 265.414,104.586 264.923 C 104.264 264.431,103.838 262.877,103.638 261.468 C 103.439 260.059,103.007 258.387,102.679 257.753 C 102.351 257.118,101.955 255.609,101.799 254.400 C 101.643 253.190,101.127 251.390,100.653 250.400 L 99.790 248.600 92.848 248.490 C 85.731 248.378,84.803 248.546,84.798 249.949 C 84.796 250.307,84.516 251.135,84.175 251.788 C 83.835 252.442,83.406 254.173,83.222 255.635 C 83.039 257.097,82.610 258.722,82.270 259.247 C 81.931 259.771,81.528 261.370,81.376 262.800 C 81.223 264.230,80.836 265.702,80.514 266.070 C 80.193 266.439,79.786 267.899,79.611 269.315 C 79.435 270.730,79.001 272.331,78.647 272.872 C 78.293 273.413,77.887 274.968,77.744 276.328 C 77.282 280.749,75.200 279.527,75.200 274.835 C 75.200 274.029,74.867 272.716,74.460 271.918 C 74.029 271.073,73.605 269.078,73.443 267.137 C 73.288 265.275,72.896 263.396,72.555 262.875 C 72.220 262.363,71.792 260.472,71.604 258.672 C 71.417 256.872,70.981 254.860,70.634 254.200 C 70.288 253.540,70.004 252.248,70.002 251.329 C 69.998 248.492,69.730 248.398,61.671 248.412 C 57.616 248.419,54.301 248.598,53.900 248.832 M137.821 248.935 C 136.061 250.222,137.026 259.244,138.980 259.769 C 141.145 260.350,152.297 260.006,152.851 259.340 C 153.597 258.443,153.876 249.815,153.186 248.983 C 152.510 248.169,138.927 248.126,137.821 248.935 M170.500 248.665 C 169.810 248.943,169.792 258.832,170.480 259.520 C 171.168 260.208,184.000 260.190,184.897 259.500 C 185.611 258.951,186.100 249.894,185.470 248.900 C 185.153 248.401,171.678 248.189,170.500 248.665 M196.300 248.947 C 195.302 249.719,195.234 300.881,196.229 302.200 C 197.017 303.244,210.699 303.685,211.523 302.693 C 211.831 302.322,212.019 299.302,212.092 293.569 L 212.200 285.000 214.983 284.880 C 218.090 284.746,218.436 284.972,220.041 288.200 C 221.776 291.687,222.487 292.944,223.031 293.489 C 223.344 293.801,223.600 294.376,223.600 294.767 C 223.600 295.157,223.950 295.793,224.377 296.179 C 224.805 296.566,225.272 297.416,225.415 298.069 C 225.558 298.721,225.917 299.347,226.213 299.460 C 226.509 299.574,226.864 300.179,227.001 300.806 C 227.467 302.924,227.811 303.000,236.961 303.000 L 245.400 303.000 245.525 301.917 C 245.594 301.322,245.312 300.332,244.899 299.717 C 244.486 299.103,243.755 298.022,243.274 297.316 C 242.793 296.610,242.400 295.783,242.400 295.478 C 242.400 295.173,242.047 294.604,241.615 294.214 C 241.183 293.823,240.629 292.895,240.384 292.152 C 240.139 291.408,239.786 290.800,239.600 290.800 C 239.414 290.800,239.050 290.157,238.791 289.372 C 238.532 288.587,238.068 287.847,237.760 287.729 C 237.452 287.611,237.200 287.236,237.200 286.895 C 237.200 286.554,236.750 285.686,236.200 284.964 C 234.921 283.288,234.878 281.772,236.100 281.448 C 244.047 279.344,247.446 261.446,241.103 255.103 C 240.717 254.717,240.400 254.220,240.400 254.000 C 240.400 253.780,240.173 253.600,239.896 253.600 C 239.619 253.600,239.168 253.240,238.893 252.800 C 238.618 252.360,238.152 252.000,237.858 252.000 C 237.563 252.000,236.907 251.640,236.400 251.200 C 235.893 250.760,235.079 250.400,234.593 250.400 C 234.106 250.400,233.193 249.995,232.564 249.500 C 231.134 248.374,197.701 247.865,196.300 248.947 M249.020 249.178 C 248.410 249.852,248.335 250.618,248.458 254.964 C 248.648 261.665,248.269 261.344,256.313 261.600 L 262.600 261.800 262.704 281.964 C 262.779 296.565,262.936 302.282,263.273 302.688 C 263.973 303.531,278.262 303.267,278.809 302.400 C 279.034 302.044,279.190 293.877,279.194 282.333 C 279.197 271.626,279.309 262.581,279.443 262.233 C 279.649 261.697,280.558 261.600,285.398 261.600 C 293.060 261.600,292.785 261.837,293.013 255.024 C 293.161 250.627,293.089 249.740,292.532 249.124 C 291.475 247.957,250.079 248.008,249.020 249.178 M300.006 249.189 C 299.265 250.573,299.646 302.332,300.400 302.809 C 300.730 303.017,304.015 303.191,307.700 303.194 C 316.837 303.202,316.072 304.281,315.919 291.610 L 315.800 281.659 316.950 281.430 C 318.484 281.123,330.963 281.134,331.767 281.443 C 332.321 281.655,332.400 282.945,332.400 291.794 C 332.400 300.700,332.478 301.967,333.060 302.451 C 334.135 303.345,347.671 303.472,348.547 302.596 C 349.396 301.747,349.564 249.724,348.720 248.880 C 347.841 248.001,333.882 248.225,333.062 249.131 C 332.491 249.762,332.400 250.997,332.400 258.099 C 332.400 268.762,333.382 267.600,324.371 267.600 C 315.148 267.600,316.000 268.592,316.000 257.855 C 316.000 250.936,315.902 249.559,315.371 249.029 C 314.304 247.962,300.586 248.105,300.006 249.189 M68.561 249.322 C 69.064 249.690,69.367 250.675,69.583 252.646 C 69.752 254.188,70.116 255.870,70.392 256.384 C 70.667 256.899,71.062 258.688,71.270 260.360 C 71.477 262.032,71.996 264.465,72.423 265.766 C 72.851 267.067,73.208 268.867,73.218 269.766 C 73.227 270.665,73.492 272.120,73.807 273.000 C 74.121 273.880,74.585 275.950,74.837 277.600 C 75.398 281.271,75.487 281.600,75.911 281.600 C 76.918 281.600,77.646 280.378,78.056 278.000 C 78.302 276.570,78.733 274.948,79.013 274.395 C 79.293 273.842,79.653 272.492,79.813 271.395 C 79.973 270.298,80.368 268.881,80.690 268.246 C 81.012 267.612,81.423 266.053,81.603 264.781 C 81.782 263.510,82.205 261.869,82.542 261.135 C 82.879 260.401,83.279 258.900,83.431 257.800 C 83.583 256.700,84.043 254.938,84.453 253.885 C 84.864 252.832,85.200 251.473,85.200 250.865 C 85.200 250.257,85.416 249.544,85.680 249.280 C 86.373 248.587,99.028 248.606,99.474 249.300 C 99.957 250.053,100.790 253.052,101.415 256.294 C 101.722 257.886,102.226 259.686,102.535 260.294 C 102.844 260.902,103.216 262.228,103.363 263.239 C 103.511 264.251,103.984 266.008,104.415 267.144 C 104.847 268.279,105.200 269.650,105.200 270.189 C 105.200 270.729,105.552 272.063,105.982 273.155 C 106.412 274.246,106.882 276.098,107.026 277.270 C 107.321 279.678,109.092 282.913,109.596 281.964 C 109.761 281.654,110.018 280.410,110.167 279.200 C 110.317 277.990,110.687 276.100,110.990 275.000 C 111.294 273.900,111.817 271.560,112.152 269.800 C 113.245 264.071,113.625 262.241,114.268 259.600 C 114.828 257.300,115.171 255.406,115.830 250.961 C 116.105 249.105,117.225 248.799,123.719 248.805 C 130.465 248.812,131.357 248.976,131.058 250.156 C 130.941 250.620,130.480 252.350,130.035 254.000 C 129.590 255.650,129.027 257.810,128.783 258.800 C 128.539 259.790,127.969 261.950,127.514 263.600 C 127.060 265.250,126.563 267.320,126.410 268.200 C 126.257 269.080,125.841 270.790,125.486 272.000 C 124.726 274.589,123.809 278.300,122.965 282.200 C 122.631 283.740,122.187 285.360,121.978 285.800 C 121.768 286.240,121.420 287.558,121.203 288.730 C 120.987 289.901,120.550 291.431,120.234 292.130 C 119.917 292.828,119.539 294.333,119.395 295.474 C 119.159 297.337,117.685 301.649,117.075 302.258 C 116.643 302.690,102.260 302.382,101.715 301.929 C 101.432 301.694,101.200 300.991,101.200 300.366 C 101.200 299.741,100.864 298.368,100.453 297.315 C 100.043 296.262,99.583 294.500,99.431 293.400 C 99.279 292.300,98.879 290.799,98.542 290.065 C 98.205 289.331,97.770 287.711,97.575 286.465 C 97.380 285.219,96.861 283.210,96.423 282.000 C 95.985 280.790,95.619 279.260,95.611 278.600 C 95.602 277.940,95.352 276.934,95.055 276.365 C 94.758 275.796,94.291 274.143,94.017 272.692 C 93.499 269.943,91.882 269.368,91.421 271.769 C 91.333 272.226,90.967 273.770,90.608 275.200 C 90.248 276.630,89.765 278.700,89.533 279.800 C 89.302 280.900,88.788 282.790,88.392 284.000 C 87.996 285.210,87.474 287.159,87.233 288.331 C 86.992 289.503,86.605 290.817,86.372 291.253 C 86.139 291.688,85.771 293.147,85.554 294.496 C 85.130 297.128,83.759 301.571,83.189 302.160 C 82.721 302.643,68.355 302.461,67.756 301.964 C 67.497 301.748,67.188 300.993,67.070 300.286 C 66.773 298.508,65.686 294.273,64.788 291.400 C 64.376 290.080,63.913 288.280,63.759 287.400 C 63.606 286.520,63.147 284.827,62.740 283.637 C 62.333 282.448,62.000 281.054,62.000 280.539 C 62.000 280.024,61.664 278.567,61.253 277.302 C 60.842 276.036,60.317 274.100,60.086 273.000 C 59.855 271.900,59.397 270.010,59.069 268.800 C 58.321 266.044,57.747 263.820,56.800 260.000 C 54.888 252.291,54.514 250.908,54.207 250.411 C 53.248 248.860,66.549 247.851,68.561 249.322 M152.626 249.241 C 153.057 249.940,152.799 258.119,152.327 258.688 C 151.706 259.437,140.042 259.411,139.013 258.659 C 137.979 257.903,137.772 249.777,138.771 249.192 C 139.699 248.650,152.287 248.694,152.626 249.241 M184.788 249.385 C 185.527 250.276,185.197 258.306,184.400 258.809 C 184.070 259.017,180.961 259.191,177.490 259.194 L 171.180 259.200 170.790 258.174 C 170.223 256.683,170.292 249.868,170.880 249.280 C 171.640 248.520,184.148 248.614,184.788 249.385 M231.800 249.968 C 233.340 250.489,235.078 251.250,235.662 251.658 C 236.246 252.066,236.916 252.400,237.151 252.400 C 237.386 252.400,238.394 253.215,239.391 254.212 C 246.904 261.725,244.827 276.228,235.552 281.025 C 234.141 281.755,234.065 282.871,235.296 284.800 C 236.493 286.675,238.996 291.023,240.016 293.000 C 240.471 293.880,241.369 295.410,242.013 296.400 C 242.657 297.390,243.380 298.650,243.620 299.199 C 243.860 299.749,244.318 300.488,244.638 300.842 C 245.782 302.106,244.499 302.362,236.675 302.427 C 228.554 302.495,228.408 302.460,227.393 300.232 C 227.084 299.554,225.923 297.380,224.813 295.400 C 223.703 293.420,222.433 291.080,221.990 290.200 C 219.074 284.403,219.156 284.478,215.301 284.118 C 211.133 283.729,211.146 283.699,211.225 293.515 C 211.262 297.999,211.134 301.826,210.943 302.017 C 210.374 302.586,198.073 302.559,197.385 301.988 C 196.581 301.321,196.495 250.065,197.297 249.263 C 198.342 248.218,228.451 248.833,231.800 249.968 M291.520 249.280 C 291.840 249.600,292.000 251.369,292.000 254.600 C 292.000 260.733,292.382 260.400,285.349 260.400 L 279.658 260.400 278.812 261.475 C 277.975 262.539,277.967 262.763,278.019 282.119 C 278.054 294.905,277.931 301.829,277.666 302.094 C 277.063 302.697,263.910 302.498,263.517 301.879 C 263.349 301.616,263.209 292.523,263.206 281.674 C 263.202 268.853,263.055 261.677,262.786 261.174 C 262.407 260.465,261.899 260.400,256.760 260.400 C 249.227 260.400,249.600 260.702,249.600 254.606 C 249.600 250.298,249.693 249.586,250.300 249.232 C 251.372 248.608,290.894 248.654,291.520 249.280 M314.720 249.280 C 315.065 249.625,315.200 252.278,315.200 258.690 L 315.200 267.620 316.226 268.010 C 316.790 268.224,320.469 268.400,324.400 268.400 C 328.331 268.400,332.010 268.224,332.574 268.010 L 333.600 267.620 333.600 258.690 C 333.600 252.278,333.735 249.625,334.080 249.280 C 334.663 248.697,347.826 248.595,348.182 249.171 C 348.346 249.436,348.507 287.997,348.403 302.000 C 348.400 302.435,335.335 302.580,334.233 302.157 C 333.679 301.945,333.600 300.652,333.600 291.780 C 333.600 279.191,334.590 280.400,324.285 280.400 C 314.168 280.400,315.200 279.155,315.200 291.365 C 315.200 299.091,315.079 301.603,314.690 301.925 C 314.117 302.401,301.572 302.677,300.849 302.231 C 300.354 301.924,300.174 249.560,300.667 249.067 C 301.169 248.565,314.202 248.762,314.720 249.280 M211.687 260.700 C 211.529 261.085,211.400 263.740,211.400 266.600 C 211.400 273.749,210.886 273.200,217.579 273.200 C 226.482 273.200,229.200 271.657,229.200 266.600 C 229.200 263.420,228.297 262.100,225.140 260.664 C 222.927 259.658,212.103 259.687,211.687 260.700 M224.095 261.266 C 227.636 262.418,229.002 264.157,228.715 267.147 C 228.320 271.257,226.110 272.158,217.000 271.923 L 212.200 271.800 212.080 267.400 C 212.014 264.980,212.067 262.415,212.198 261.700 L 212.436 260.400 216.918 260.394 C 220.457 260.390,221.967 260.573,224.095 261.266 M145.113 263.200 C 139.659 263.363,138.306 263.520,137.777 264.050 C 137.061 264.768,136.868 285.411,137.566 286.756 C 137.749 287.110,138.025 288.432,138.178 289.694 C 138.331 290.955,138.638 292.100,138.861 292.238 C 139.084 292.375,139.606 293.281,140.021 294.249 C 140.739 295.925,145.096 300.800,145.876 300.800 C 146.079 300.800,146.855 301.250,147.600 301.800 C 148.345 302.350,149.378 302.800,149.894 302.800 C 150.410 302.800,151.538 303.160,152.400 303.600 C 154.550 304.697,168.633 304.810,170.600 303.746 C 171.260 303.389,172.597 302.940,173.571 302.747 C 174.546 302.555,175.678 302.038,176.087 301.599 C 176.496 301.159,177.085 300.800,177.396 300.800 C 177.706 300.800,178.104 300.556,178.280 300.258 C 178.456 299.961,179.005 299.504,179.500 299.244 C 179.995 298.984,180.400 298.508,180.400 298.186 C 180.400 297.864,180.658 297.600,180.973 297.600 C 181.288 297.600,181.653 297.264,181.783 296.853 C 181.914 296.442,182.376 295.784,182.810 295.391 C 183.245 294.998,183.600 294.386,183.600 294.032 C 183.600 293.678,184.005 292.671,184.500 291.794 C 185.659 289.741,186.161 264.563,185.060 263.650 C 184.270 262.995,171.308 262.933,170.657 263.582 C 170.352 263.886,170.124 267.324,169.972 273.919 C 169.696 285.838,169.339 287.294,166.134 289.579 C 162.464 292.195,156.768 291.070,155.019 287.383 C 154.667 286.641,154.203 285.926,153.989 285.793 C 153.753 285.648,153.600 281.549,153.600 275.395 C 153.600 265.422,153.380 263.433,152.246 263.122 C 152.001 263.055,148.791 263.090,145.113 263.200 M152.800 275.200 L 153.000 285.800 154.176 287.600 C 157.654 292.921,167.070 293.043,168.804 287.789 C 169.044 287.060,169.502 286.248,169.820 285.983 C 170.298 285.587,170.400 283.774,170.400 275.725 C 170.400 263.236,169.618 264.400,178.006 264.400 L 184.785 264.400 185.025 265.358 C 185.158 265.885,185.191 271.420,185.100 277.658 L 184.933 289.000 183.821 291.600 C 183.210 293.030,182.460 294.484,182.155 294.831 C 181.850 295.179,181.600 295.647,181.600 295.872 C 181.600 296.603,177.331 300.172,175.138 301.274 C 170.550 303.579,161.080 304.709,156.000 303.557 C 155.010 303.333,153.199 302.936,151.976 302.675 C 150.752 302.414,149.312 301.911,148.776 301.558 C 148.239 301.204,147.440 300.801,147.000 300.661 C 145.466 300.173,140.400 294.783,140.400 293.639 C 140.400 293.411,139.995 292.454,139.500 291.512 C 138.543 289.692,137.685 266.852,138.507 265.091 C 138.808 264.445,139.460 264.391,145.719 264.491 L 152.600 264.600 152.800 275.200 " stroke="none" fill="#acacac" fill-rule="evenodd"></path><path id="path4" d="M54.615 249.339 C 54.142 249.685,53.996 250.070,54.207 250.411 C 54.514 250.908,54.888 252.291,56.800 260.000 C 57.747 263.820,58.321 266.044,59.069 268.800 C 59.397 270.010,59.855 271.900,60.086 273.000 C 60.317 274.100,60.842 276.036,61.253 277.302 C 61.664 278.567,62.000 280.024,62.000 280.539 C 62.000 281.054,62.333 282.448,62.740 283.637 C 63.147 284.827,63.606 286.520,63.759 287.400 C 63.913 288.280,64.376 290.080,64.788 291.400 C 65.686 294.273,66.773 298.508,67.070 300.286 C 67.188 300.993,67.497 301.748,67.756 301.964 C 68.355 302.461,82.721 302.643,83.189 302.160 C 83.759 301.571,85.130 297.128,85.554 294.496 C 85.771 293.147,86.139 291.688,86.372 291.253 C 86.605 290.817,86.992 289.503,87.233 288.331 C 87.474 287.159,87.996 285.210,88.392 284.000 C 88.788 282.790,89.302 280.900,89.533 279.800 C 89.765 278.700,90.248 276.630,90.608 275.200 C 90.967 273.770,91.333 272.226,91.421 271.769 C 91.882 269.368,93.499 269.943,94.017 272.692 C 94.291 274.143,94.758 275.796,95.055 276.365 C 95.352 276.934,95.602 277.940,95.611 278.600 C 95.619 279.260,95.985 280.790,96.423 282.000 C 96.861 283.210,97.380 285.219,97.575 286.465 C 97.770 287.711,98.205 289.331,98.542 290.065 C 98.879 290.799,99.279 292.300,99.431 293.400 C 99.583 294.500,100.043 296.262,100.453 297.315 C 100.864 298.368,101.200 299.741,101.200 300.366 C 101.200 300.991,101.432 301.694,101.715 301.929 C 102.260 302.382,116.643 302.690,117.075 302.258 C 117.685 301.649,119.159 297.337,119.395 295.474 C 119.539 294.333,119.917 292.828,120.234 292.130 C 120.550 291.431,120.987 289.901,121.203 288.730 C 121.420 287.558,121.768 286.240,121.978 285.800 C 122.187 285.360,122.631 283.740,122.965 282.200 C 123.809 278.300,124.726 274.589,125.486 272.000 C 125.841 270.790,126.257 269.080,126.410 268.200 C 126.563 267.320,127.060 265.250,127.514 263.600 C 127.969 261.950,128.539 259.790,128.783 258.800 C 129.027 257.810,129.590 255.650,130.035 254.000 C 130.480 252.350,130.941 250.620,131.058 250.156 C 131.357 248.976,130.465 248.812,123.719 248.805 C 117.225 248.799,116.105 249.105,115.830 250.961 C 115.171 255.406,114.828 257.300,114.268 259.600 C 113.625 262.241,113.245 264.071,112.152 269.800 C 111.817 271.560,111.294 273.900,110.990 275.000 C 110.687 276.100,110.317 277.990,110.167 279.200 C 110.018 280.410,109.761 281.654,109.596 281.964 C 109.092 282.913,107.321 279.678,107.026 277.270 C 106.882 276.098,106.412 274.246,105.982 273.155 C 105.552 272.063,105.200 270.729,105.200 270.189 C 105.200 269.650,104.847 268.279,104.415 267.144 C 103.984 266.008,103.511 264.251,103.363 263.239 C 103.216 262.228,102.844 260.902,102.535 260.294 C 102.226 259.686,101.722 257.886,101.415 256.294 C 100.790 253.052,99.957 250.053,99.474 249.300 C 99.028 248.606,86.373 248.587,85.680 249.280 C 85.416 249.544,85.200 250.257,85.200 250.865 C 85.200 251.473,84.864 252.832,84.453 253.885 C 84.043 254.938,83.583 256.700,83.431 257.800 C 83.279 258.900,82.879 260.401,82.542 261.135 C 82.205 261.869,81.782 263.510,81.603 264.781 C 81.423 266.053,81.012 267.612,80.690 268.246 C 80.368 268.881,79.973 270.298,79.813 271.395 C 79.653 272.492,79.293 273.842,79.013 274.395 C 78.733 274.948,78.302 276.570,78.056 278.000 C 77.646 280.378,76.918 281.600,75.911 281.600 C 75.487 281.600,75.398 281.271,74.837 277.600 C 74.585 275.950,74.121 273.880,73.807 273.000 C 73.492 272.120,73.227 270.665,73.218 269.766 C 73.208 268.867,72.851 267.067,72.423 265.766 C 71.996 264.465,71.477 262.032,71.270 260.360 C 71.062 258.688,70.667 256.899,70.392 256.384 C 70.116 255.870,69.752 254.188,69.583 252.646 C 69.367 250.675,69.064 249.690,68.561 249.322 C 67.532 248.570,55.648 248.584,54.615 249.339 M138.771 249.192 C 137.772 249.777,137.979 257.903,139.013 258.659 C 140.042 259.411,151.706 259.437,152.327 258.688 C 152.799 258.119,153.057 249.940,152.626 249.241 C 152.287 248.694,139.699 248.650,138.771 249.192 M170.880 249.280 C 170.292 249.868,170.223 256.683,170.790 258.174 L 171.180 259.200 177.490 259.194 C 180.961 259.191,184.070 259.017,184.400 258.809 C 185.197 258.306,185.527 250.276,184.788 249.385 C 184.148 248.614,171.640 248.520,170.880 249.280 M197.297 249.263 C 196.495 250.065,196.581 301.321,197.385 301.988 C 198.073 302.559,210.374 302.586,210.943 302.017 C 211.134 301.826,211.262 297.999,211.225 293.515 C 211.146 283.699,211.133 283.729,215.301 284.118 C 219.156 284.478,219.074 284.403,221.990 290.200 C 222.433 291.080,223.703 293.420,224.813 295.400 C 225.923 297.380,227.084 299.554,227.393 300.232 C 228.408 302.460,228.554 302.495,236.675 302.427 C 244.499 302.362,245.782 302.106,244.638 300.842 C 244.318 300.488,243.860 299.749,243.620 299.199 C 243.380 298.650,242.657 297.390,242.013 296.400 C 241.369 295.410,240.471 293.880,240.016 293.000 C 238.996 291.023,236.493 286.675,235.296 284.800 C 234.065 282.871,234.141 281.755,235.552 281.025 C 244.827 276.228,246.904 261.725,239.391 254.212 C 238.394 253.215,237.386 252.400,237.151 252.400 C 236.916 252.400,236.246 252.066,235.662 251.658 C 232.260 249.282,230.222 249.029,213.397 248.892 C 201.358 248.795,197.681 248.879,197.297 249.263 M250.300 249.232 C 249.693 249.586,249.600 250.298,249.600 254.606 C 249.600 260.702,249.227 260.400,256.760 260.400 C 261.899 260.400,262.407 260.465,262.786 261.174 C 263.055 261.677,263.202 268.853,263.206 281.674 C 263.209 292.523,263.349 301.616,263.517 301.879 C 263.910 302.498,277.063 302.697,277.666 302.094 C 277.931 301.829,278.054 294.905,278.019 282.119 C 277.967 262.763,277.975 262.539,278.812 261.475 L 279.658 260.400 285.349 260.400 C 292.382 260.400,292.000 260.733,292.000 254.600 C 292.000 251.369,291.840 249.600,291.520 249.280 C 290.894 248.654,251.372 248.608,250.300 249.232 M300.667 249.067 C 300.174 249.560,300.354 301.924,300.849 302.231 C 301.572 302.677,314.117 302.401,314.690 301.925 C 315.079 301.603,315.200 299.091,315.200 291.365 C 315.200 279.155,314.168 280.400,324.285 280.400 C 334.590 280.400,333.600 279.191,333.600 291.780 C 333.600 300.652,333.679 301.945,334.233 302.157 C 335.335 302.580,348.400 302.435,348.403 302.000 C 348.507 287.997,348.346 249.436,348.182 249.171 C 347.826 248.595,334.663 248.697,334.080 249.280 C 333.735 249.625,333.600 252.278,333.600 258.690 L 333.600 267.620 332.574 268.010 C 332.010 268.224,328.331 268.400,324.400 268.400 C 320.469 268.400,316.790 268.224,316.226 268.010 L 315.200 267.620 315.200 258.690 C 315.200 252.278,315.065 249.625,314.720 249.280 C 314.202 248.762,301.169 248.565,300.667 249.067 M67.475 249.446 C 68.564 249.738,69.199 251.470,69.202 254.160 C 69.204 255.282,69.486 256.738,69.829 257.396 C 70.172 258.054,70.677 260.335,70.952 262.466 C 71.227 264.596,71.661 266.592,71.917 266.900 C 72.172 267.208,72.501 268.796,72.647 270.430 C 72.794 272.063,73.248 274.262,73.657 275.315 C 74.087 276.424,74.405 278.276,74.413 279.715 C 74.441 285.317,78.026 285.042,78.517 279.400 C 78.632 278.080,79.099 276.190,79.554 275.200 C 80.010 274.210,80.386 272.701,80.391 271.847 C 80.396 270.993,80.737 269.733,81.149 269.047 C 81.562 268.361,81.997 266.781,82.117 265.536 C 82.237 264.290,82.609 262.850,82.944 262.336 C 83.278 261.821,83.676 260.410,83.828 259.200 C 83.979 257.990,84.440 256.245,84.851 255.322 C 85.263 254.399,85.600 252.737,85.600 251.630 C 85.600 249.112,85.532 249.133,93.200 249.285 L 99.000 249.400 99.406 251.400 C 99.629 252.500,100.053 253.829,100.349 254.354 C 100.644 254.878,100.979 256.408,101.092 257.754 C 101.206 259.099,101.621 260.740,102.014 261.400 C 102.406 262.060,102.855 263.680,103.012 265.000 C 103.168 266.320,103.526 267.670,103.808 268.000 C 104.089 268.330,104.505 269.812,104.732 271.293 C 104.959 272.774,105.427 274.389,105.772 274.882 C 106.155 275.428,106.404 276.642,106.410 277.989 C 106.418 279.882,106.623 280.478,107.835 282.129 C 109.609 284.548,110.186 284.214,110.562 280.545 C 110.711 279.088,111.124 277.335,111.480 276.648 C 111.836 275.962,112.264 273.906,112.431 272.080 C 112.599 270.254,112.937 268.517,113.183 268.220 C 113.430 267.923,113.817 266.016,114.044 263.982 C 114.271 261.949,114.695 259.906,114.986 259.442 C 115.277 258.979,115.630 257.520,115.769 256.200 C 116.523 249.081,116.396 249.198,123.316 249.205 C 129.401 249.212,130.572 249.408,130.168 250.353 C 130.016 250.709,129.734 252.068,129.541 253.373 C 129.349 254.679,128.924 256.042,128.597 256.404 C 128.270 256.765,127.890 258.217,127.754 259.630 C 127.617 261.044,127.255 262.600,126.950 263.090 C 126.645 263.579,126.203 265.360,125.968 267.048 C 125.733 268.735,125.312 270.345,125.032 270.626 C 124.751 270.906,124.412 272.305,124.279 273.735 C 124.145 275.165,123.668 277.022,123.218 277.862 C 122.768 278.701,122.400 280.076,122.400 280.916 C 122.400 281.756,122.064 283.199,121.653 284.122 C 121.241 285.045,120.785 286.873,120.639 288.185 C 120.493 289.496,120.186 290.685,119.958 290.826 C 119.469 291.128,118.824 293.690,118.807 295.400 C 118.800 296.060,118.501 297.140,118.141 297.800 C 117.781 298.460,117.375 299.630,117.237 300.400 L 116.987 301.800 109.795 301.910 C 101.613 302.034,101.600 302.029,101.600 298.871 C 101.600 297.845,101.283 296.567,100.851 295.847 C 100.439 295.161,99.982 293.524,99.837 292.208 C 99.691 290.892,99.311 289.418,98.992 288.932 C 98.673 288.445,98.292 287.002,98.146 285.724 C 97.999 284.446,97.546 282.773,97.139 282.006 C 96.733 281.239,96.400 279.797,96.400 278.800 C 96.400 277.720,96.059 276.351,95.555 275.411 C 95.089 274.543,94.615 272.792,94.499 271.520 C 94.027 266.313,90.411 268.155,90.402 273.606 C 90.401 274.379,90.067 275.639,89.661 276.406 C 89.254 277.173,88.798 278.872,88.647 280.183 C 88.497 281.494,88.133 282.844,87.839 283.183 C 87.544 283.522,87.180 284.778,87.028 285.974 C 86.877 287.169,86.404 288.914,85.976 289.852 C 85.549 290.789,85.200 292.202,85.200 292.991 C 85.200 293.780,84.910 295.095,84.555 295.913 C 84.201 296.731,83.706 298.390,83.455 299.600 L 83.000 301.800 75.600 301.800 L 68.200 301.800 67.745 299.495 C 67.495 298.227,67.095 296.956,66.857 296.669 C 66.619 296.382,66.302 295.079,66.151 293.774 C 66.001 292.468,65.546 290.773,65.139 290.006 C 64.733 289.239,64.400 287.797,64.400 286.800 C 64.400 285.720,64.059 284.351,63.555 283.411 C 63.089 282.543,62.616 280.746,62.503 279.417 C 62.389 278.087,62.030 276.694,61.704 276.320 C 61.378 275.946,60.976 274.401,60.810 272.888 C 60.643 271.374,60.235 269.700,59.901 269.168 C 59.567 268.636,59.177 267.124,59.033 265.808 C 58.889 264.492,58.503 263.006,58.174 262.505 C 57.846 262.003,57.421 260.349,57.230 258.829 C 57.039 257.308,56.614 255.554,56.286 254.932 C 55.260 252.988,54.826 249.663,55.572 249.462 C 56.555 249.197,66.498 249.184,67.475 249.446 M152.200 253.600 L 152.200 257.800 145.830 257.911 C 138.354 258.040,138.814 258.341,138.806 253.333 C 138.799 248.906,138.210 249.234,146.000 249.327 L 152.200 249.400 152.200 253.600 M184.167 249.443 C 184.848 249.704,185.118 256.481,184.487 257.474 C 183.907 258.385,171.514 258.276,171.153 257.357 C 170.627 256.016,170.744 249.689,171.300 249.465 C 172.022 249.174,183.415 249.154,184.167 249.443 M228.315 249.850 C 228.588 250.281,229.247 250.461,232.449 250.982 C 233.245 251.111,234.308 251.573,234.810 252.008 C 235.312 252.444,236.053 252.800,236.458 252.800 C 236.862 252.800,237.418 253.160,237.693 253.600 C 237.968 254.040,238.415 254.400,238.686 254.400 C 238.957 254.400,239.459 254.940,239.800 255.600 C 240.141 256.260,240.582 256.800,240.778 256.800 C 240.975 256.800,241.260 257.385,241.411 258.100 C 241.563 258.815,242.027 259.961,242.443 260.647 C 243.585 262.529,243.555 270.423,242.400 271.891 C 241.960 272.450,241.600 273.326,241.600 273.836 C 241.600 274.438,240.791 275.557,239.300 277.019 C 236.052 280.202,235.922 280.304,234.664 280.620 C 234.043 280.775,233.440 281.152,233.323 281.456 C 233.067 282.124,234.846 286.009,235.753 286.761 C 236.109 287.056,236.400 287.563,236.400 287.886 C 236.400 288.209,236.760 288.931,237.200 289.491 C 237.640 290.050,238.000 290.726,238.000 290.992 C 238.000 291.258,238.360 291.802,238.800 292.200 C 239.240 292.598,239.600 293.211,239.600 293.562 C 239.601 293.913,240.051 294.723,240.600 295.362 C 241.150 296.001,241.600 296.846,241.600 297.240 C 241.600 297.633,241.915 298.193,242.300 298.484 C 242.685 298.775,243.297 299.579,243.661 300.270 C 244.536 301.937,244.320 301.988,236.274 301.995 C 229.247 302.001,228.776 301.873,227.846 299.712 C 227.489 298.880,227.026 297.930,226.819 297.600 C 226.611 297.270,226.171 296.460,225.840 295.800 C 225.510 295.140,225.012 294.150,224.735 293.600 C 224.458 293.050,223.819 292.091,223.316 291.469 C 222.812 290.847,222.400 290.020,222.400 289.631 C 222.400 289.242,222.061 288.617,221.646 288.242 C 221.231 287.866,220.789 287.043,220.663 286.413 C 220.051 283.353,213.729 281.574,211.478 283.829 L 210.356 284.953 210.478 293.277 L 210.600 301.602 209.400 301.820 C 208.740 301.940,205.860 301.985,203.000 301.919 L 197.800 301.800 197.696 276.000 C 197.639 261.810,197.682 249.967,197.791 249.682 C 198.057 248.985,227.871 249.149,228.315 249.850 M291.105 249.533 C 291.646 249.876,291.582 258.258,291.032 259.148 C 290.845 259.451,288.802 259.600,284.838 259.600 C 276.526 259.600,277.443 256.968,277.200 281.542 L 277.000 301.800 271.600 301.919 C 268.630 301.984,265.660 301.940,265.000 301.820 L 263.800 301.601 263.907 281.646 C 263.975 269.128,263.866 261.301,263.617 260.645 L 263.220 259.600 257.234 259.600 C 253.073 259.600,251.158 259.456,250.956 259.129 C 250.341 258.133,250.555 249.632,251.200 249.456 C 252.353 249.142,290.604 249.215,291.105 249.533 M314.400 258.715 C 314.565 266.407,314.705 268.096,315.200 268.409 C 316.029 268.932,332.645 268.911,333.626 268.386 C 334.357 267.995,334.400 267.458,334.400 258.794 L 334.400 249.615 335.300 249.393 C 335.795 249.270,338.810 249.222,342.000 249.285 L 347.800 249.400 347.800 275.600 L 347.800 301.800 341.200 301.800 L 334.600 301.800 334.493 291.356 C 334.358 278.080,335.503 279.400,324.130 279.400 C 313.531 279.400,314.657 278.011,314.400 291.400 L 314.200 301.800 307.600 301.800 L 301.000 301.800 300.896 276.000 C 300.839 261.810,300.880 249.971,300.988 249.690 C 301.137 249.299,302.704 249.206,307.691 249.290 L 314.200 249.400 314.400 258.715 M211.212 259.988 C 210.386 260.814,210.350 261.146,210.472 266.768 C 210.640 274.499,210.132 274.000,217.828 274.000 C 224.543 274.000,225.796 273.656,228.600 271.042 C 230.983 268.819,229.756 260.800,227.033 260.800 C 226.829 260.800,226.315 260.485,225.890 260.100 C 224.559 258.895,212.398 258.802,211.212 259.988 M225.140 260.664 C 228.297 262.100,229.200 263.420,229.200 266.600 C 229.200 271.657,226.482 273.200,217.579 273.200 C 210.886 273.200,211.400 273.749,211.400 266.600 C 211.400 263.740,211.529 261.085,211.687 260.700 C 212.103 259.687,222.927 259.658,225.140 260.664 M138.507 265.091 C 137.685 266.852,138.543 289.692,139.500 291.512 C 139.995 292.454,140.400 293.411,140.400 293.639 C 140.400 294.783,145.466 300.173,147.000 300.661 C 147.440 300.801,148.239 301.204,148.776 301.558 C 149.312 301.911,150.752 302.414,151.976 302.675 C 153.199 302.936,155.010 303.333,156.000 303.557 C 161.080 304.709,170.550 303.579,175.138 301.274 C 177.331 300.172,181.600 296.603,181.600 295.872 C 181.600 295.647,181.850 295.179,182.155 294.831 C 182.460 294.484,183.210 293.030,183.821 291.600 L 184.933 289.000 185.100 277.658 C 185.191 271.420,185.158 265.885,185.025 265.358 L 184.785 264.400 178.006 264.400 C 169.618 264.400,170.400 263.236,170.400 275.725 C 170.400 283.774,170.298 285.587,169.820 285.983 C 169.502 286.248,169.044 287.060,168.804 287.789 C 167.070 293.043,157.654 292.921,154.176 287.600 L 153.000 285.800 152.800 275.200 L 152.600 264.600 145.719 264.491 C 139.460 264.391,138.808 264.445,138.507 265.091 M152.400 276.237 C 152.597 287.164,152.611 287.311,153.500 287.900 C 153.995 288.229,154.400 288.706,154.400 288.960 C 154.400 290.996,158.715 292.404,163.642 291.975 C 166.369 291.738,169.600 289.517,169.600 287.880 C 169.600 287.560,169.870 287.074,170.200 286.800 C 170.705 286.381,170.800 284.667,170.800 275.975 C 170.800 268.986,170.940 265.561,171.234 265.379 C 171.949 264.937,184.027 265.067,184.481 265.521 C 185.239 266.279,184.725 288.177,183.929 289.064 C 183.565 289.469,183.136 290.520,182.976 291.400 C 182.816 292.280,182.261 293.509,181.742 294.131 C 181.224 294.753,180.800 295.447,180.800 295.673 C 180.800 296.371,176.757 299.924,175.647 300.201 C 175.071 300.345,174.306 300.727,173.947 301.050 C 173.588 301.374,172.058 301.825,170.547 302.052 C 169.036 302.280,167.029 302.721,166.086 303.033 C 163.898 303.757,159.722 303.761,157.514 303.042 C 156.571 302.734,154.453 302.293,152.806 302.060 C 151.160 301.828,149.753 301.459,149.680 301.241 C 149.608 301.023,148.885 300.627,148.074 300.361 C 147.263 300.095,146.365 299.545,146.077 299.139 C 145.790 298.732,145.382 298.400,145.172 298.400 C 144.662 298.400,142.427 295.924,142.412 295.343 C 142.405 295.091,142.164 294.795,141.876 294.684 C 141.587 294.574,141.118 293.700,140.832 292.742 C 140.546 291.784,140.117 290.878,139.880 290.729 C 138.907 290.120,138.249 266.311,139.179 265.380 C 139.395 265.165,142.295 265.037,145.879 265.086 L 152.200 265.171 152.400 276.237 " stroke="none" fill="#747474" fill-rule="evenodd"></path></g></svg>